<mxfile host="drawio-plugin" modified="2022-04-21T02:44:38.014Z" agent="5.0 (Windows NT 6.2; Win64; x64) AppleWebKit/537.36 (KHTML, like Gecko) Chrome/97.0.4692.45 Safari/537.36" version="15.5.4" etag="KIVGTF0YLFOfqeJrqKZe" type="embed"><diagram id="PBSTSkqSIMbbPuwT83IZ" name="Page-1"><mxGraphModel dx="405" dy="551" grid="1" gridSize="10" guides="1" tooltips="1" connect="1" arrows="1" fold="1" page="1" pageScale="1" pageWidth="850" pageHeight="1100" math="0" shadow="0"><root><mxCell id="0"/><mxCell id="1" parent="0"/><mxCell id="2" value="friend（好友）" style="swimlane;fontStyle=0;childLayout=stackLayout;horizontal=1;startSize=26;fillColor=none;horizontalStack=0;resizeParent=1;resizeParentMax=0;resizeLast=0;collapsible=1;marginBottom=0;" vertex="1" parent="1"><mxGeometry x="260" y="170" width="140" height="78" as="geometry"/></mxCell><mxCell id="3" value="account  用户账号" style="text;strokeColor=none;fillColor=none;align=left;verticalAlign=top;spacingLeft=4;spacingRight=4;overflow=hidden;rotatable=0;points=[[0,0.5],[1,0.5]];portConstraint=eastwest;" vertex="1" parent="2"><mxGeometry y="26" width="140" height="26" as="geometry"/></mxCell><mxCell id="4" value="groups   用户分组" style="text;strokeColor=default;fillColor=none;align=left;verticalAlign=top;spacingLeft=4;spacingRight=4;overflow=hidden;rotatable=0;points=[[0,0.5],[1,0.5]];portConstraint=eastwest;" vertex="1" parent="2"><mxGeometry y="52" width="140" height="26" as="geometry"/></mxCell><mxCell id="8" style="edgeStyle=orthogonalEdgeStyle;rounded=0;orthogonalLoop=1;jettySize=auto;html=1;exitX=1;exitY=0.5;exitDx=0;exitDy=0;entryX=0.5;entryY=0;entryDx=0;entryDy=0;" edge="1" parent="1" source="4" target="20"><mxGeometry relative="1" as="geometry"><mxPoint x="470" y="125" as="targetPoint"/></mxGeometry></mxCell><mxCell id="9" value="conversion （会话）" style="swimlane;fontStyle=0;childLayout=stackLayout;horizontal=1;startSize=26;fillColor=none;horizontalStack=0;resizeParent=1;resizeParentMax=0;resizeLast=0;collapsible=1;marginBottom=0;strokeColor=default;" vertex="1" parent="1"><mxGeometry x="260" y="320" width="140" height="78" as="geometry"/></mxCell><mxCell id="10" value="conversion_id   会话id" style="text;strokeColor=none;fillColor=none;align=left;verticalAlign=top;spacingLeft=4;spacingRight=4;overflow=hidden;rotatable=0;points=[[0,0.5],[1,0.5]];portConstraint=eastwest;" vertex="1" parent="9"><mxGeometry y="26" width="140" height="26" as="geometry"/></mxCell><mxCell id="11" value="message" style="text;strokeColor=default;fillColor=none;align=left;verticalAlign=top;spacingLeft=4;spacingRight=4;overflow=hidden;rotatable=0;points=[[0,0.5],[1,0.5]];portConstraint=eastwest;" vertex="1" parent="9"><mxGeometry y="52" width="140" height="26" as="geometry"/></mxCell><mxCell id="13" style="edgeStyle=orthogonalEdgeStyle;rounded=0;orthogonalLoop=1;jettySize=auto;html=1;exitX=1;exitY=0.5;exitDx=0;exitDy=0;entryX=0.5;entryY=0;entryDx=0;entryDy=0;" edge="1" parent="1" source="11" target="14"><mxGeometry relative="1" as="geometry"><mxPoint x="470" y="385.20000000000005" as="targetPoint"/><Array as="points"><mxPoint x="430" y="385"/><mxPoint x="430" y="330"/><mxPoint x="510" y="330"/></Array></mxGeometry></mxCell><mxCell id="14" value="List" style="swimlane;fontStyle=0;childLayout=stackLayout;horizontal=1;startSize=26;fillColor=none;horizontalStack=0;resizeParent=1;resizeParentMax=0;resizeLast=0;collapsible=1;marginBottom=0;strokeColor=default;" vertex="1" parent="1"><mxGeometry x="440" y="350.00000000000006" width="140" height="130" as="geometry"/></mxCell><mxCell id="15" value="account" style="text;strokeColor=default;fillColor=none;align=left;verticalAlign=top;spacingLeft=4;spacingRight=4;overflow=hidden;rotatable=0;points=[[0,0.5],[1,0.5]];portConstraint=eastwest;" vertex="1" parent="14"><mxGeometry y="26" width="140" height="26" as="geometry"/></mxCell><mxCell id="16" value="create_time" style="text;strokeColor=none;fillColor=none;align=left;verticalAlign=top;spacingLeft=4;spacingRight=4;overflow=hidden;rotatable=0;points=[[0,0.5],[1,0.5]];portConstraint=eastwest;" vertex="1" parent="14"><mxGeometry y="52" width="140" height="26" as="geometry"/></mxCell><mxCell id="18" value="content" style="text;strokeColor=default;fillColor=none;align=left;verticalAlign=top;spacingLeft=4;spacingRight=4;overflow=hidden;rotatable=0;points=[[0,0.5],[1,0.5]];portConstraint=eastwest;" vertex="1" parent="14"><mxGeometry y="78" width="140" height="26" as="geometry"/></mxCell><mxCell id="19" value="image_path" style="text;strokeColor=default;fillColor=none;align=left;verticalAlign=top;spacingLeft=4;spacingRight=4;overflow=hidden;rotatable=0;points=[[0,0.5],[1,0.5]];portConstraint=eastwest;" vertex="1" parent="14"><mxGeometry y="104" width="140" height="26" as="geometry"/></mxCell><mxCell id="20" value="object" style="swimlane;fontStyle=0;childLayout=stackLayout;horizontal=1;startSize=26;fillColor=none;horizontalStack=0;resizeParent=1;resizeParentMax=0;resizeLast=0;collapsible=1;marginBottom=0;strokeColor=default;" vertex="1" parent="1"><mxGeometry x="450" y="146" width="140" height="104" as="geometry"/></mxCell><mxCell id="21" value="分组1" style="text;align=left;verticalAlign=top;spacingLeft=4;spacingRight=4;overflow=hidden;rotatable=0;points=[[0,0.5],[1,0.5]];portConstraint=eastwest;" vertex="1" parent="20"><mxGeometry y="26" width="140" height="26" as="geometry"/></mxCell><mxCell id="22" value="分组2" style="text;align=left;verticalAlign=top;spacingLeft=4;spacingRight=4;overflow=hidden;rotatable=0;points=[[0,0.5],[1,0.5]];portConstraint=eastwest;strokeColor=default;" vertex="1" parent="20"><mxGeometry y="52" width="140" height="26" as="geometry"/></mxCell><mxCell id="23" value="..." style="text;align=left;verticalAlign=top;spacingLeft=4;spacingRight=4;overflow=hidden;rotatable=0;points=[[0,0.5],[1,0.5]];portConstraint=eastwest;fillColor=default;strokeColor=default;" vertex="1" parent="20"><mxGeometry y="78" width="140" height="26" as="geometry"/></mxCell><mxCell id="24" style="edgeStyle=orthogonalEdgeStyle;rounded=0;orthogonalLoop=1;jettySize=auto;html=1;exitX=1;exitY=0.5;exitDx=0;exitDy=0;dashed=1;" edge="1" parent="1" source="21"><mxGeometry relative="1" as="geometry"><mxPoint x="640" y="184.83333333333337" as="targetPoint"/></mxGeometry></mxCell><mxCell id="25" value="存放相应分组中的用户账号" style="rounded=0;whiteSpace=wrap;html=1;strokeColor=default;fillColor=default;align=left;" vertex="1" parent="1"><mxGeometry x="640" y="160" width="110" height="40" as="geometry"/></mxCell><mxCell id="26" style="edgeStyle=orthogonalEdgeStyle;rounded=0;orthogonalLoop=1;jettySize=auto;html=1;exitX=1;exitY=0.5;exitDx=0;exitDy=0;dashed=1;entryX=0;entryY=0.5;entryDx=0;entryDy=0;" edge="1" parent="1" source="10" target="27"><mxGeometry relative="1" as="geometry"><mxPoint x="440" y="359" as="targetPoint"/></mxGeometry></mxCell><mxCell id="27" value="会话id根据两个会话用户id生成" style="rounded=0;whiteSpace=wrap;html=1;strokeColor=default;fillColor=default;align=left;" vertex="1" parent="1"><mxGeometry x="440" y="290" width="120" height="30" as="geometry"/></mxCell><mxCell id="32" value="" style="edgeStyle=orthogonalEdgeStyle;rounded=0;orthogonalLoop=1;jettySize=auto;html=1;" edge="1" parent="1" source="28" target="31"><mxGeometry relative="1" as="geometry"/></mxCell><mxCell id="28" value="" style="shape=curlyBracket;whiteSpace=wrap;html=1;rounded=1;strokeColor=default;fillColor=default;align=left;" vertex="1" parent="1"><mxGeometry x="210" y="180" width="20" height="200" as="geometry"/></mxCell><mxCell id="31" value="Redis" style="whiteSpace=wrap;html=1;rounded=1;align=center;strokeColor=#d79b00;fillColor=#ffe6cc;" vertex="1" parent="1"><mxGeometry x="120" y="260" width="60" height="40" as="geometry"/></mxCell><mxCell id="33" value="Mysql" style="whiteSpace=wrap;html=1;rounded=1;align=center;strokeColor=#d79b00;fillColor=#ffe6cc;" vertex="1" parent="1"><mxGeometry x="120" y="650" width="60" height="40" as="geometry"/></mxCell><mxCell id="34" value="user" style="swimlane;fontStyle=0;childLayout=stackLayout;horizontal=1;startSize=26;fillColor=none;horizontalStack=0;resizeParent=1;resizeParentMax=0;resizeLast=0;collapsible=1;marginBottom=0;strokeColor=default;align=center;" vertex="1" parent="1"><mxGeometry x="240" y="600" width="140" height="104" as="geometry"/></mxCell><mxCell id="35" value="account" style="text;strokeColor=default;fillColor=none;align=left;verticalAlign=top;spacingLeft=4;spacingRight=4;overflow=hidden;rotatable=0;points=[[0,0.5],[1,0.5]];portConstraint=eastwest;" vertex="1" parent="34"><mxGeometry y="26" width="140" height="26" as="geometry"/></mxCell><mxCell id="36" value="password" style="text;strokeColor=default;fillColor=none;align=left;verticalAlign=top;spacingLeft=4;spacingRight=4;overflow=hidden;rotatable=0;points=[[0,0.5],[1,0.5]];portConstraint=eastwest;" vertex="1" parent="34"><mxGeometry y="52" width="140" height="26" as="geometry"/></mxCell><mxCell id="37" value="create_tiem" style="text;strokeColor=default;fillColor=none;align=left;verticalAlign=top;spacingLeft=4;spacingRight=4;overflow=hidden;rotatable=0;points=[[0,0.5],[1,0.5]];portConstraint=eastwest;" vertex="1" parent="34"><mxGeometry y="78" width="140" height="26" as="geometry"/></mxCell><mxCell id="38" value="user_info" style="swimlane;fontStyle=0;childLayout=stackLayout;horizontal=1;startSize=26;fillColor=none;horizontalStack=0;resizeParent=1;resizeParentMax=0;resizeLast=0;collapsible=1;marginBottom=0;strokeColor=default;align=center;" vertex="1" parent="1"><mxGeometry x="240" y="720" width="140" height="182" as="geometry"/></mxCell><mxCell id="39" value="account" style="text;strokeColor=default;fillColor=none;align=left;verticalAlign=top;spacingLeft=4;spacingRight=4;overflow=hidden;rotatable=0;points=[[0,0.5],[1,0.5]];portConstraint=eastwest;" vertex="1" parent="38"><mxGeometry y="26" width="140" height="26" as="geometry"/></mxCell><mxCell id="40" value="nickname" style="text;strokeColor=default;fillColor=none;align=left;verticalAlign=top;spacingLeft=4;spacingRight=4;overflow=hidden;rotatable=0;points=[[0,0.5],[1,0.5]];portConstraint=eastwest;" vertex="1" parent="38"><mxGeometry y="52" width="140" height="26" as="geometry"/></mxCell><mxCell id="42" value="phone" style="text;strokeColor=default;fillColor=none;align=left;verticalAlign=top;spacingLeft=4;spacingRight=4;overflow=hidden;rotatable=0;points=[[0,0.5],[1,0.5]];portConstraint=eastwest;" vertex="1" parent="38"><mxGeometry y="78" width="140" height="26" as="geometry"/></mxCell><mxCell id="43" value="email" style="text;strokeColor=default;fillColor=none;align=left;verticalAlign=top;spacingLeft=4;spacingRight=4;overflow=hidden;rotatable=0;points=[[0,0.5],[1,0.5]];portConstraint=eastwest;" vertex="1" parent="38"><mxGeometry y="104" width="140" height="26" as="geometry"/></mxCell><mxCell id="44" value="profile" style="text;strokeColor=default;fillColor=none;align=left;verticalAlign=top;spacingLeft=4;spacingRight=4;overflow=hidden;rotatable=0;points=[[0,0.5],[1,0.5]];portConstraint=eastwest;" vertex="1" parent="38"><mxGeometry y="130" width="140" height="26" as="geometry"/></mxCell><mxCell id="41" value="signature" style="text;strokeColor=default;fillColor=none;align=left;verticalAlign=top;spacingLeft=4;spacingRight=4;overflow=hidden;rotatable=0;points=[[0,0.5],[1,0.5]];portConstraint=eastwest;" vertex="1" parent="38"><mxGeometry y="156" width="140" height="26" as="geometry"/></mxCell><mxCell id="45" style="edgeStyle=orthogonalEdgeStyle;rounded=0;orthogonalLoop=1;jettySize=auto;html=1;exitX=1;exitY=0.5;exitDx=0;exitDy=0;entryX=1;entryY=0.5;entryDx=0;entryDy=0;" edge="1" parent="1" source="35" target="39"><mxGeometry relative="1" as="geometry"/></mxCell><mxCell id="46" value="" style="shape=curlyBracket;whiteSpace=wrap;html=1;rounded=1;strokeColor=default;fillColor=default;align=center;" vertex="1" parent="1"><mxGeometry x="180" y="610" width="20" height="170" as="geometry"/></mxCell></root></mxGraphModel></diagram></mxfile>